<?xml version="1.0" encoding="utf-8"?>
<!-- Generator: Adobe Illustrator 24.1.1, SVG Export Plug-In . SVG Version: 6.00 Build 0)  -->
<svg version="1.1"
	 id="Layer_1" image-rendering="optimizeQuality" text-rendering="geometricPrecision" shape-rendering="geometricPrecision"
	 xmlns="http://www.w3.org/2000/svg" xmlns:xlink="http://www.w3.org/1999/xlink" x="0px" y="0px" viewBox="0 0 1500 1500"
	 style="enable-background:new 0 0 1500 1500;" xml:space="preserve">
<style type="text/css">
	.st0{fill:#599636;}
	.st1{fill:#6CAC48;}
	.st2{fill:#C2BFBF;}
</style>
<g>
	<path class="st0" d="M745.8,87l35.6,66.8c8,12.3,16.7,23.3,26.9,33.4c29.8,29.8,58.1,61,83.5,94.4c60.3,79.2,101,167.1,130,262.1
		c17.4,58.1,26.9,117.7,27.6,177.9c2.9,180.1-58.8,334.8-183.3,463.3c-20.3,20.3-42.1,39.2-65.4,55.9c-12.3,0-18.2-9.5-23.3-18.2
		c-9.5-16-15.3-34.2-18.2-52.3c-4.4-21.8-7.3-43.6-5.8-66.1v-10.2C752.4,1092,741.5,92.1,745.8,87L745.8,87L745.8,87z"/>
	<path class="st1" d="M745.8,84.8c-1.5-2.9-2.9-0.7-4.4,0.7c0.7,14.6-4.4,27.6-12.3,40c-8.8,12.3-20.3,21.8-32,32
		c-64.6,55.9-115.4,123.4-156.1,199c-54.2,101.7-82.1,210.6-90,325.3c-3.6,41.4,13.1,187.4,26.1,229.5
		c35.6,111.8,99.5,205.5,182.3,286.8c20.3,19.6,42.1,37.7,64.6,55.2c6.5,0,7.3-5.8,8.7-10.2c2.9-9.3,5.1-18.8,6.5-28.3l14.6-108.9
		L745.8,84.8L745.8,84.8z"/>
	<path class="st2" d="M781.4,1285.1c1.5-16.7,9.5-30.5,18.2-44.3c-8.8-3.6-15.3-10.8-20.3-18.9c-4.4-7.3-8-16-10.8-24
		c-10.2-30.5-12.3-62.5-15.3-93.7v-18.9c-3.6,2.9-4.4,27.6-4.4,31.3c-2,32.8-6.5,65.8-13.1,98.1c-2.2,13.1-3.6,26.1-11.7,37.7
		c0,1.5,0,2.9,0.7,5.1c13.1,38.5,16.7,77.7,18.9,117.7v14.6c0,17.4-0.7,13.7,13.8,19.6c5.8,2.2,12.3,2.9,18.2,7.3
		c4.4,0,5.1-3.6,5.1-6.5l-2.2-24v-66.8C777.7,1307.7,779.9,1296.1,781.4,1285.1L781.4,1285.1L781.4,1285.1z"/>
</g>
</svg>
