<svg width="69" height="69" viewBox="0 0 69 69" fill="none" xmlns="http://www.w3.org/2000/svg">
<circle cx="34.5" cy="34.5" r="33.5143" fill="white" stroke="#83D2FF" stroke-width="1.97143"/>
<path d="M33.7041 46.8052H25.3237L23.9803 50.7715H18.2547L26.3792 28.317H32.7125L40.8371 50.7715H35.0475L33.7041 46.8052ZM32.2967 42.583L29.5139 34.3625L26.7631 42.583H32.2967Z" fill="#00A3FF"/>
<path d="M51.4343 50.9954C49.7924 50.9954 48.321 50.7288 47.0202 50.1957C45.7194 49.6626 44.6745 48.8736 43.8855 47.8287C43.1179 46.7838 42.7127 45.5257 42.6701 44.0543H48.4916C48.5769 44.886 48.8647 45.5257 49.3552 45.9735C49.8457 46.4 50.4854 46.6133 51.2744 46.6133C52.0847 46.6133 52.7244 46.432 53.1936 46.0695C53.6627 45.6857 53.8973 45.1632 53.8973 44.5022C53.8973 43.9477 53.7054 43.4893 53.3215 43.1267C52.959 42.7642 52.5005 42.4657 51.9461 42.2311C51.413 41.9966 50.6453 41.73 49.6431 41.4315C48.193 40.9837 47.0095 40.5358 46.0926 40.088C45.1757 39.6402 44.3867 38.9792 43.7256 38.1049C43.0646 37.2306 42.734 36.0897 42.734 34.6823C42.734 32.5926 43.491 30.9613 45.0051 29.7884C46.5191 28.5943 48.4916 27.9972 50.9225 27.9972C53.3961 27.9972 55.39 28.5943 56.904 29.7884C58.418 30.9613 59.2283 32.6032 59.335 34.7143H53.4175C53.3748 33.9893 53.1083 33.4242 52.6178 33.019C52.1274 32.5926 51.4983 32.3793 50.7306 32.3793C50.0696 32.3793 49.5365 32.5606 49.1313 32.9231C48.7261 33.2643 48.5236 33.7654 48.5236 34.4264C48.5236 35.1515 48.8647 35.7166 49.5471 36.1217C50.2295 36.5269 51.2957 36.964 52.7458 37.4332C54.1958 37.9236 55.3686 38.3928 56.2643 38.8406C57.1812 39.2884 57.9702 39.9388 58.6313 40.7917C59.2923 41.6447 59.6228 42.7429 59.6228 44.0863C59.6228 45.3658 59.2923 46.528 58.6313 47.5728C57.9915 48.6177 57.0533 49.4494 55.8165 50.0678C54.5796 50.6862 53.1189 50.9954 51.4343 50.9954Z" fill="black"/>
<path d="M13.6768 23.1093C13.6768 21.3731 13.9079 19.7745 14.3699 18.3137C14.8366 16.8529 15.5484 15.4994 16.5052 14.2532H19.3545C18.9904 14.7153 18.6521 15.28 18.3394 15.9474C18.0267 16.6102 17.7536 17.3383 17.5203 18.1317C17.2869 18.9251 17.1049 19.7465 16.9742 20.596C16.8435 21.4407 16.7782 22.2785 16.7782 23.1093C16.7782 24.2154 16.8902 25.3332 17.1142 26.4627C17.3429 27.5875 17.651 28.6329 18.0383 29.599C18.4304 30.5651 18.8691 31.3562 19.3545 31.9723H16.5052C15.5484 30.7262 14.8366 29.3727 14.3699 27.9118C13.9079 26.451 13.6768 24.8501 13.6768 23.1093Z" fill="white"/>
<path d="M32.348 21.7861V24.1524H25.8092V21.7861H32.348Z" fill="black"/>
</svg>
