<svg width="360" height="800" viewBox="0 0 360 800" fill="none" xmlns="http://www.w3.org/2000/svg">
<g clip-path="url(#clip0_276_28)">
<rect width="360" height="800" fill="white"/>
<g clip-path="url(#clip1_276_28)">
<path fill-rule="evenodd" clip-rule="evenodd" d="M21.3904 206.711C50.2996 196.802 65.7025 165.334 55.7939 136.425C45.8852 107.516 14.4172 92.1126 -14.492 102.021C-43.4012 111.93 -58.8041 143.398 -48.8954 172.307C-38.9868 201.216 -7.51873 216.619 21.3904 206.711ZM444.401 270.63C473.31 260.722 488.713 229.254 478.804 200.345C468.896 171.435 437.428 156.032 408.519 165.941C379.609 175.85 364.206 207.318 374.115 236.227C384.024 265.136 415.492 280.539 444.401 270.63ZM104.914 328.496C117.304 324.249 123.905 310.763 119.658 298.374C115.412 285.984 101.925 279.383 89.5358 283.629C77.1462 287.876 70.5449 301.362 74.7915 313.752C79.0381 326.141 92.5244 332.743 104.914 328.496ZM655.47 398.837C667.86 394.591 674.461 381.104 670.214 368.715C665.968 356.325 652.481 349.724 640.092 353.97C627.702 358.217 621.101 371.703 625.347 384.093C629.594 396.483 643.08 403.084 655.47 398.837ZM377.918 686.163C390.308 681.917 396.909 668.43 392.663 656.041C388.416 643.651 374.93 637.05 362.54 641.296C350.15 645.543 343.549 659.029 347.796 671.419C352.042 683.809 365.529 690.41 377.918 686.163ZM601.885 -25.68C614.275 -29.9265 620.876 -43.4129 616.63 -55.8025C612.383 -68.1921 598.897 -74.7934 586.507 -70.5468C574.117 -66.3003 567.516 -52.814 571.763 -40.4243C576.009 -28.0347 589.496 -21.4334 601.885 -25.68ZM203.154 712.639C219.674 706.977 228.476 688.995 222.813 672.475C217.151 655.956 199.17 647.154 182.65 652.816C166.131 658.478 157.329 676.46 162.991 692.98C168.653 709.499 186.635 718.301 203.154 712.639ZM245.936 154.816C262.456 149.154 271.257 131.172 265.595 114.653C259.933 98.1333 241.951 89.3316 225.432 94.9937C208.912 100.656 200.111 118.638 205.773 135.157C211.435 151.677 229.416 160.478 245.936 154.816ZM389.732 13.6106C410.382 6.53298 421.384 -15.9442 414.306 -36.5936C407.229 -57.243 384.751 -68.2451 364.102 -61.1675C343.453 -54.0899 332.45 -31.6127 339.528 -10.9633C346.606 9.6861 369.083 20.6882 389.732 13.6106ZM498.647 477.657C515.167 471.995 523.968 454.014 518.306 437.494C512.644 420.974 494.663 412.173 478.143 417.835C461.623 423.497 452.822 441.479 458.484 457.998C464.146 474.518 482.128 483.319 498.647 477.657ZM771.89 567.841C792.54 560.764 803.542 538.286 796.464 517.637C789.387 496.988 766.909 485.986 746.26 493.063C725.611 500.141 714.609 522.618 721.686 543.267C728.764 563.917 751.241 574.919 771.89 567.841ZM293.761 489.388C314.41 482.311 325.412 459.834 318.335 439.184C311.257 418.535 288.78 407.533 268.13 414.61C247.481 421.688 236.479 444.165 243.557 464.815C250.634 485.464 273.111 496.466 293.761 489.388ZM686.677 246.084C707.326 239.007 718.328 216.529 711.25 195.88C704.173 175.231 681.696 164.228 661.046 171.306C640.397 178.384 629.395 200.861 636.472 221.51C643.55 242.16 666.027 253.162 686.677 246.084ZM565.553 112.117C573.812 109.286 578.213 100.296 575.382 92.0358C572.551 83.776 563.56 79.3752 555.3 82.2062C547.041 85.0373 542.64 94.0281 545.471 102.288C548.302 110.548 557.293 114.949 565.553 112.117ZM574.904 627.002C583.164 624.171 587.565 615.18 584.734 606.921C581.903 598.661 572.912 594.26 564.652 597.091C556.392 599.922 551.992 608.913 554.823 617.173C557.654 625.432 566.645 629.833 574.904 627.002ZM259.808 317.188C268.067 314.356 272.468 305.366 269.637 297.106C266.806 288.846 257.815 284.445 249.555 287.276C241.296 290.107 236.895 299.098 239.726 307.358C242.557 315.618 251.548 320.019 259.808 317.188ZM136.516 518.216C144.775 515.385 149.176 506.394 146.345 498.134C143.514 489.874 134.523 485.473 126.263 488.304C118.004 491.135 113.603 500.126 116.434 508.386C119.265 516.646 128.256 521.047 136.516 518.216Z" fill="#DDEFFD" fill-opacity="0.4"/>
</g>
<path d="M286.805 721.858L244 799.787H359.549V400L337.237 490.886C332.555 509.958 329.706 529.434 328.729 549.048L327.228 579.16C324.735 629.174 310.913 677.967 286.805 721.858Z" fill="#DDEFFD"/>
</g>
<defs>
<clipPath id="clip0_276_28">
<rect width="360" height="800" fill="white"/>
</clipPath>
<clipPath id="clip1_276_28">
<rect width="790.486" height="790.486" fill="white" transform="translate(-107 100.303) rotate(-18.9192)"/>
</clipPath>
</defs>
</svg>
