<?xml version="1.0" encoding="utf-8"?>
<!-- Generator: Adobe Illustrator 24.1.1, SVG Export Plug-In . SVG Version: 6.00 Build 0)  -->
<svg version="1.1" id="wave" xmlns="http://www.w3.org/2000/svg" xmlns:xlink="http://www.w3.org/1999/xlink" x="0px" y="0px"
	 viewBox="0 0 1440 224" style="enable-background:new 0 0 1440 224;" xml:space="preserve">
<style type="text/css">
	.st0{fill:#90CAF9;}
</style>
<path class="st0" d="M0,224l40-10.7c40-10.3,120-32.3,200-64C320,117,400,75,480,58.7c80-15.7,160-5.7,240,0c80,5.3,160,5.3,240,16
	c80,10.3,160,32.3,240,32c80,0.3,160-21.7,200-32l40-10.7V0h-40c-40,0-120,0-200,0s-160,0-240,0S800,0,720,0S560,0,480,0
	S320,0,240,0S80,0,40,0H0V224z"/>
</svg>
